<svg width="500.000000" height="500.000000" viewBox="0 0 500 500" fill="none" xmlns="http://www.w3.org/2000/svg" xmlns:xlink="http://www.w3.org/1999/xlink">
	<desc>
			Created with Pixso.
	</desc>
	<defs>
		<filter id="filter_3_18_dd" x="-5.000000" y="19.000000" width="510.350098" height="415.138794" filterUnits="userSpaceOnUse" color-interpolation-filters="sRGB">
			<feFlood flood-opacity="0" result="BackgroundImageFix"/>
			<feColorMatrix in="SourceAlpha" type="matrix" values="0 0 0 0 0 0 0 0 0 0 0 0 0 0 0 0 0 0 127 0" result="hardAlpha"/>
			<feOffset dx="0" dy="0"/>
			<feGaussianBlur stdDeviation="20.3333"/>
			<feComposite in2="hardAlpha" operator="out" k2="-1" k3="1"/>
			<feColorMatrix type="matrix" values="0 0 0 0 0 0 0 0 0 0 0 0 0 0 0 0 0 0 0.25 0"/>
			<feBlend mode="normal" in2="BackgroundImageFix" result="effect_dropShadow_1"/>
			<feBlend mode="normal" in="SourceGraphic" in2="effect_dropShadow_1" result="shape"/>
		</filter>
		<clipPath id="clip3_8">
			<rect id="favicon" rx="80.000000" width="500.000000" height="500.000000" fill="white" fill-opacity="0"/>
		</clipPath>
		<linearGradient x1="370.428833" y1="349.889099" x2="456.283447" y2="349.889099" id="paint_linear_3_13_0" gradientUnits="userSpaceOnUse">
			<stop stop-color="#060606"/>
			<stop offset="1.000000" stop-color="#413F3E"/>
		</linearGradient>
		<linearGradient x1="371.205017" y1="214.847992" x2="56.000046" y2="373.138824" id="paint_linear_3_20_0" gradientUnits="userSpaceOnUse">
			<stop stop-color="#2F2D2A"/>
			<stop offset="1.000000" stop-color="#010001"/>
		</linearGradient>
		<linearGradient x1="381.627228" y1="80.000015" x2="301.092010" y2="261.644257" id="paint_linear_3_17_0" gradientUnits="userSpaceOnUse">
			<stop stop-color="#3D3A39"/>
			<stop offset="1.000000" stop-color="#000000"/>
		</linearGradient>
	</defs>
	<rect id="favicon" rx="80.000000" width="500.000000" height="500.000000" fill="#D5C6B5" fill-opacity="1.000000"/>
	<g clip-path="url(#clip3_8)">
		<g filter="url(#filter_3_18_dd)">
			<path id="矩形 2" d="M268 330L424.46 330C435.44 330 444.35 338.9 444.35 349.88L444.35 369.77L268 369.77L268 330Z" fill="url(#paint_linear_3_13_0)" fill-opacity="1.000000" fill-rule="evenodd"/>
			<path id="合并" d="M371.205 366.55L371.205 202.445C371.205 200.987 370.254 199.698 368.855 199.289C350.169 193.821 330.198 190.863 309.448 190.863C207.803 190.863 124.85 261.852 120.149 350.991C119.955 354.682 117.259 357.836 113.574 358.136C104 358.918 95.5947 358.18 88.3574 355.923C80.8018 353.568 75.6753 349.897 72.9778 344.913C70.4307 340.205 70.0496 334.326 71.835 327.274C73.0303 322.552 75.8179 317.151 80.1978 311.071C83.0051 307.174 87.8818 301.291 94.8281 293.421C102.773 284.42 108.315 277.613 111.456 273C117.124 264.674 120.237 256.944 120.792 249.81C120.961 247.649 120.901 245.518 120.615 243.419C118.522 228.108 104.321 214.452 78.009 202.45C74.2637 200.742 69.9788 202.342 68.2705 206.087C66.562 209.833 68.1626 214.117 71.9077 215.826C94.6301 226.19 106.054 236.688 106.18 247.32C106.185 247.769 106.17 248.219 106.135 248.668C105.782 253.203 103.505 258.556 99.3035 264.727C96.5093 268.831 91.3433 275.153 83.8059 283.692C76.5388 291.925 71.3599 298.187 68.269 302.478C62.7983 310.073 59.2363 317.135 57.583 323.666C55.2412 332.916 55.4976 341.134 58.3523 348.319C59.1125 350.233 60.0571 352.073 61.186 353.84C61.6721 354.601 62.1873 355.34 62.7312 356.058C67.5483 362.41 74.6318 367.043 83.9812 369.958C93.0356 372.782 103.299 373.725 114.77 372.789C119.739 372.384 124.637 371.651 129.463 370.593C129.842 370.509 130.221 370.424 130.599 370.337C131.906 370.036 133.241 369.865 134.583 369.865L367.89 369.865C369.721 369.865 371.205 368.381 371.205 366.55Z" clip-rule="evenodd" fill="url(#paint_linear_3_20_0)" fill-opacity="1.000000" fill-rule="evenodd"/>
			<path id="合并" d="M295.093 82.578L261.807 151.426C255.837 160.606 252.455 171.084 252.455 182.208C252.455 218.457 288.371 247.842 332.675 247.842C376.978 247.842 412.894 218.457 412.894 182.208C412.894 167.404 406.903 153.744 396.797 142.763C396.571 142.518 396.381 142.242 396.236 141.942L367.93 83.3957C366.259 79.9374 361.126 80.7092 360.447 84.5211L354.913 115.562C354.58 117.427 352.757 118.629 350.897 118.275C345.043 117.162 338.943 116.574 332.675 116.574C326.084 116.574 319.68 117.224 313.552 118.451C311.682 118.825 309.838 117.621 309.503 115.744L303.824 83.891C303.031 79.4437 297.044 78.5433 295.093 82.578Z" clip-rule="evenodd" fill="url(#paint_linear_3_17_0)" fill-opacity="1.000000" fill-rule="evenodd"/>
		</g>
	</g>
</svg>
